<?xml version="1.0" encoding="UTF-8" standalone="no"?>
<!-- Created with Inkscape (http://www.inkscape.org/) -->

<svg
   xmlns:dc="http://purl.org/dc/elements/1.1/"
   xmlns:cc="http://creativecommons.org/ns#"
   xmlns:rdf="http://www.w3.org/1999/02/22-rdf-syntax-ns#"
   xmlns:svg="http://www.w3.org/2000/svg"
   xmlns="http://www.w3.org/2000/svg"
   xmlns:sodipodi="http://sodipodi.sourceforge.net/DTD/sodipodi-0.dtd"
   xmlns:inkscape="http://www.inkscape.org/namespaces/inkscape"
   width="1080"
   height="1920"
   viewBox="0 0 1080 1920"
   id="svg7306"
   version="1.1"
   inkscape:version="0.91 r13725"
   sodipodi:docname="bq_logo.svg">
  <defs
     id="defs7308" />
  <sodipodi:namedview
     id="base"
     pagecolor="#ffffff"
     bordercolor="#666666"
     borderopacity="1.0"
     inkscape:pageopacity="0.0"
     inkscape:pageshadow="2"
     inkscape:zoom="0.35"
     inkscape:cx="-113.57143"
     inkscape:cy="1153.2345"
     inkscape:document-units="px"
     inkscape:current-layer="layer1"
     showgrid="false"
     units="px"
     inkscape:window-width="1855"
     inkscape:window-height="1056"
     inkscape:window-x="65"
     inkscape:window-y="24"
     inkscape:window-maximized="1" />
  <metadata
     id="metadata7311">
    <rdf:RDF>
      <cc:Work
         rdf:about="">
        <dc:format>image/svg+xml</dc:format>
        <dc:type
           rdf:resource="http://purl.org/dc/dcmitype/StillImage" />
        <dc:title></dc:title>
      </cc:Work>
    </rdf:RDF>
  </metadata>
  <g
     inkscape:label="Capa 1"
     inkscape:groupmode="layer"
     id="layer1"
     transform="translate(0,867.63784)">
    <g
       transform="matrix(1.3793239,0,0,-1.3793239,511.70012,771.21394)"
       id="g20">
      <path
         inkscape:connector-curvature="0"
         id="path22"
         style="fill:#6e217e;fill-opacity:1;fill-rule:nonzero;stroke:none"
         d="m 0,0 c 0,16.783 -13.643,30.389 -30.473,30.389 -16.831,0 -30.469,-13.606 -30.469,-30.389 0,-16.783 13.638,-30.39 30.469,-30.39 C -13.643,-30.39 0,-16.783 0,0" />
    </g>
    <g
       transform="matrix(1.3793239,0,0,-1.3793239,622.14424,472.83101)"
       id="g24">
      <path
         inkscape:connector-curvature="0"
         id="path26"
         style="fill:#b90067;fill-opacity:1;fill-rule:nonzero;stroke:none"
         d="m 0,0 c 0,16.783 -13.642,30.389 -30.472,30.389 -16.831,0 -30.47,-13.606 -30.47,-30.389 0,-16.783 13.639,-30.389 30.47,-30.389 C -13.642,-30.389 0,-16.783 0,0" />
    </g>
    <g
       transform="matrix(1.3793239,0,0,-1.3793239,773.49027,409.48267)"
       id="g28">
      <path
         inkscape:connector-curvature="0"
         id="path30"
         style="fill:#d6006d;fill-opacity:1;fill-rule:nonzero;stroke:none"
         d="m 0,0 c 0,16.783 -13.643,30.389 -30.473,30.389 -16.831,0 -30.469,-13.606 -30.469,-30.389 0,-16.784 13.638,-30.39 30.469,-30.39 C -13.643,-30.39 0,-16.784 0,0" />
    </g>
    <g
       transform="matrix(1.3793239,0,0,-1.3793239,916.81803,472.83101)"
       id="g32">
      <path
         inkscape:connector-curvature="0"
         id="path34"
         style="fill:#e52633;fill-opacity:1;fill-rule:nonzero;stroke:none"
         d="M 0,0 C 0,16.783 -13.65,30.389 -30.477,30.389 -47.304,30.389 -60.95,16.783 -60.95,0 c 0,-16.783 13.646,-30.389 30.473,-30.389 C -13.65,-30.389 0,-16.783 0,0" />
    </g>
    <g
       transform="matrix(1.3793239,0,0,-1.3793239,1022.4091,593.45812)"
       id="g36">
      <path
         inkscape:connector-curvature="0"
         id="path38"
         style="fill:#eb6408;fill-opacity:1;fill-rule:nonzero;stroke:none"
         d="M 0,0 C 0,16.783 -13.646,30.389 -30.477,30.389 -47.304,30.389 -60.95,16.783 -60.95,0 c 0,-16.783 13.646,-30.389 30.473,-30.389 C -13.646,-30.389 0,-16.783 0,0" />
    </g>
    <g
       transform="matrix(1.3793239,0,0,-1.3793239,979.72209,977.14727)"
       id="g40">
      <path
         inkscape:connector-curvature="0"
         id="path42"
         style="fill:#4a4a49;fill-opacity:1;fill-rule:nonzero;stroke:none"
         d="M 0,0 0,50.055 C -6.209,43.004 -17.009,38.43 -27.947,38.43 c -13.74,0 -22.902,5.816 -28.164,10.693 -9.751,9.234 -15.117,23.754 -15.117,40.894 0,16.325 5.15,30.502 14.509,39.918 7.174,7.29 17.372,11.306 28.718,11.306 l 0.226,0.007 c 0.346,0.011 0.95,0.036 1.772,0.036 6.723,0 23.462,-1.642 33.643,-16.859 l 0.139,-0.212 c 0.8,-1.212 1.626,-2.468 2.449,-3.85 l 8.183,0 L 18.411,0 0,0 Z m -25.26,125.13 c -7.229,0 -13.118,-2.19 -17.5,-6.511 -7.994,-7.884 -9.672,-20.008 -9.672,-28.792 0,-8.353 1.744,-20.026 10.057,-28.222 4.831,-4.765 10.428,-7.08 17.115,-7.08 5.893,0 11.152,2.013 15.629,5.981 7.029,6.11 10.592,15.971 10.592,29.321 0,13.348 -3.563,23.212 -10.584,29.316 -4.485,3.974 -9.741,5.987 -15.637,5.987 M -128.053,38.386 c -6.723,0 -23.463,1.642 -33.65,16.86 l -0.186,0.287 c -0.783,1.19 -1.591,2.42 -2.395,3.774 l -8.185,0 0,120.363 18.41,0 0,-50.052 c 6.213,7.044 17.015,11.623 27.946,11.623 13.744,0 22.902,-5.814 28.165,-10.691 9.755,-9.241 15.12,-23.761 15.12,-40.893 0,-16.325 -5.154,-30.499 -14.512,-39.922 -7.174,-7.287 -17.373,-11.305 -28.718,-11.305 l -0.23,-0.008 c -0.342,-0.014 -0.946,-0.036 -1.762,-0.036 l -0.003,0 z m -0.75,86.759 c -5.896,0 -11.153,-2.013 -15.622,-5.984 -7.032,-6.104 -10.595,-15.968 -10.595,-29.319 0,-13.347 3.563,-23.211 10.588,-29.311 4.476,-3.975 9.733,-5.992 15.629,-5.992 7.233,0 13.122,2.192 17.505,6.516 7.996,7.884 9.674,20.005 9.674,28.787 0,8.354 -1.747,20.03 -10.06,28.228 -4.827,4.761 -10.429,7.075 -17.119,7.075" />
    </g>
  </g>
</svg>
